Coordinates
version=1
nRows=7
nColumns=42
inDegrees=yes

Units are S.I. units (second, meters, Newtons, ...)
If the header above contains a line with 'inDegrees', this indicates whether rotational values are in degrees (yes) or radians (no).

endheader
time	pelvis_tilt	pelvis_list	pelvis_rotation	pelvis_tx	pelvis_ty	pelvis_tz	hip_flexion_r	hip_adduction_r	hip_rotation_r	knee_angle_r	knee_adduction_r	knee_angle_r_beta	ankle_angle_r	subtalar_angle_r	mtp_angle_r	hip_flexion_l	hip_adduction_l	hip_rotation_l	knee_angle_l	knee_adduction_l	knee_angle_l_beta	ankle_angle_l	subtalar_angle_l	mtp_angle_l	lumbar_extension	lumbar_bending	lumbar_rotation	arm_flex_r	arm_add_r	arm_rot_r	elbow_flex_r	pro_sup_r	wrist_flex_r	wrist_dev_r	arm_flex_l	arm_add_l	arm_rot_l	elbow_flex_l	pro_sup_l	wrist_flex_l	wrist_dev_l
      1.20000000	     15.67182047	      0.73007634	     -8.41587273	      0.35055867	      0.98201481	     -0.09659328	    -10.42923198	     -3.02737078	     -3.81548047	     63.68161437	     -3.69400866	      1.11145384	      2.93229798	     -5.35945669	     -7.58720994	     -3.78315296	      5.35785117	     -9.69777513	     18.58838642	      0.40140424	      0.32442855	      6.54627854	      6.50361274	     -7.58720994	    -36.82032566	     -2.58472007	      5.87714762	      2.75621115	    -19.57365229	     -2.97040806	     68.15293902	     90.00000001	      0.00000000	      0.00000000	     -2.50920705	    -16.26964798	     -1.58779745	     52.35564696	     90.00000001	      0.00000000	      0.00000000
      1.21000000	     15.90090421	      0.83129892	     -8.05853021	      0.36401480	      0.98462407	     -0.09712631	     -9.07516642	     -3.13070899	     -4.98581790	     63.58824108	     -4.42755482	      1.10982417	      4.64922141	     -3.80803010	     -7.57987910	     -5.76757190	      5.67286952	     -8.30971820	     16.78763171	      0.81953962	      0.29299945	      6.15406697	      5.63186719	     -7.57987910	    -37.02166185	     -2.39188767	      5.39912614	      2.45126797	    -19.60860195	     -3.23926030	     68.28384067	     90.00000001	      0.00000000	      0.00000000	     -2.09544594	    -16.52366868	     -1.70647543	     53.21186750	     90.00000001	      0.00000000	      0.00000000
      1.22000000	     15.66405346	      0.62136288	     -7.71861335	      0.37690883	      0.98630224	     -0.09743647	     -7.19847901	     -2.77799584	     -5.21960827	     63.33662017	     -4.35041280	      1.10543256	      5.52270516	     -3.96122764	     -7.57878433	     -6.83412981	      5.54071665	     -8.37476653	     15.86975553	      0.70457901	      0.27697949	      6.32227664	      6.01548058	     -7.57878433	    -36.80055298	     -1.87441255	      5.21536041	      2.17291965	    -19.77539936	     -3.42296185	     68.28669480	     90.00000001	      0.00000000	      0.00000000	     -1.59888682	    -16.66896179	     -1.82207704	     53.95821424	     90.00000001	      0.00000000	      0.00000000
      1.23000000	     15.55007879	      0.51634328	     -7.45804767	      0.38974857	      0.98786120	     -0.09750648	     -5.50039824	     -2.52612369	     -5.32012851	     62.73876787	     -4.25034374	      1.09499807	      6.60615072	     -4.11409676	     -7.57743140	     -8.19869168	      5.51192560	     -8.08257209	     14.55860015	      0.77397123	      0.25409551	      6.51374825	      6.89969107	     -7.57743140	    -36.71876956	     -1.54833152	      5.03215955	      1.90614217	    -19.82741650	     -3.73082265	     68.37384553	     90.00000001	      0.00000000	      0.00000000	     -1.11522916	    -16.89541551	     -1.96303963	     54.89037246	     90.00000001	      0.00000000	      0.00000000
      1.24000000	     15.71686836	      0.41479886	     -7.10604512	      0.40294057	      0.98958517	     -0.09767244	     -4.30126860	     -2.36688226	     -5.32538794	     61.63362280	     -3.84746937	      1.07570965	      7.32121319	     -4.11140629	     -7.57488422	     -9.93247610	      5.52813800	     -8.02559807	     13.11907704	      0.73432649	      0.22897109	      6.60871717	      8.00992265	     -7.57488422	    -36.87820305	     -1.20894672	      4.78304750	      1.59416279	    -19.87832233	     -4.07383013	     68.48580382	     90.00000001	      0.00000000	      0.00000000	     -0.63862291	    -17.15054000	     -1.99403635	     55.83669331	     90.00000001	      0.00000000	      0.00000000
      1.25000000	     15.55728140	      0.30622184	     -6.79037229	      0.41576863	      0.99043874	     -0.09773351	     -2.69935200	     -2.12287897	     -5.16313870	     60.44045601	     -3.40803802	      1.05488496	      7.93198393	     -4.42090470	     -7.57313321	    -11.15762223	      5.45060071	     -8.01377474	     11.98073647	      0.74300063	      0.20910330	      6.87769072	      8.87222534	     -7.57313321	    -36.73424293	     -0.86038126	      4.58560993	      1.33419494	    -19.94214377	     -4.40103470	     68.53473088	     90.00000001	      0.00000000	      0.00000000	     -0.14258391	    -17.39434614	     -2.03023374	     56.76128435	     90.00000001	      0.00000000	      0.00000000
      1.26000000	     15.53819987	      0.19167014	     -6.48313318	      0.42871981	      0.99118096	     -0.09772728	     -1.37551369	     -1.90066817	     -4.70255633	     58.92370640	     -2.69353756	      1.02841268	      8.24486276	     -5.03503157	     -7.57113480	    -12.56255604	      5.39186541	     -8.02656902	     10.79926277	      0.71754281	      0.18848269	      7.15722810	      9.82615590	     -7.57113480	    -36.71603911	     -0.53364554	      4.40990644	      1.06770663	    -19.98587872	     -4.77163831	     68.60729360	     90.00000001	      0.00000000	      0.00000000	      0.38552260	    -17.67136020	     -1.99173208	     57.69873508	     90.00000001	      0.00000000	      0.00000000
